<?xml version="1.0" standalone="no"?>
<!DOCTYPE svg PUBLIC "-//W3C//DTD SVG 1.1//EN" "http://www.w3.org/Graphics/SVG/1.1/DTD/svg11.dtd">
<svg width="100%" height="100%" viewBox="0 0 24 24" version="1.1" xmlns="http://www.w3.org/2000/svg" xmlns:xlink="http://www.w3.org/1999/xlink" xml:space="preserve" style="fill-rule:evenodd;clip-rule:evenodd;stroke-linejoin:round;stroke-miterlimit:1.41421;">
    <g transform="matrix(1,0,0,1,-380.303,-953.269)">
        <g id="Layer1">
            <g>
                <g transform="matrix(0.339229,0,0,0.339229,377.916,950.038)">
                    <path d="M70.105,48.407L60.757,41.356L60.565,41.21L60.56,41.207L53.045,35.539L53.045,39.803L59.112,44.38L64.432,48.424L42.413,65.032L20.396,48.426L27.32,43.17L31.707,39.859L31.707,35.594L14.721,48.407L14.757,48.433L14.721,48.46L14.721,58.242L42.413,79.13L70.105,58.243L70.105,48.461L70.07,48.434L70.105,48.407ZM66.703,56.548L42.413,74.868L18.123,56.548L18.123,50.974L42.413,69.294L66.703,50.974L66.703,56.548Z" style="fill:rgb(253,253,253);fill-rule:nonzero;"/>
                </g>
                <g transform="matrix(0.339229,0,0,0.339229,377.916,950.038)">
                    <path d="M35.109,33.639L35.109,46.058C35.109,50.065 38.369,53.325 42.376,53.325C46.383,53.325 49.643,50.065 49.643,46.058L49.643,33.693C52.916,31.404 55.066,27.613 55.066,23.324C55.066,16.347 49.39,10.671 42.413,10.671C35.436,10.671 29.76,16.347 29.76,23.324C29.76,27.581 31.878,31.344 35.109,33.639ZM46.241,46.058C46.241,48.19 44.506,49.922 42.376,49.922C40.246,49.922 38.512,48.19 38.512,46.058L38.512,35.355C39.742,35.755 41.051,35.977 42.413,35.977C43.747,35.977 45.033,35.766 46.241,35.382L46.241,46.058ZM42.413,14.074C47.514,14.074 51.664,18.224 51.664,23.325C51.664,28.426 47.514,32.575 42.413,32.575C37.312,32.575 33.162,28.425 33.162,23.325C33.162,18.224 37.312,14.074 42.413,14.074Z" style="fill:rgb(253,253,253);fill-rule:nonzero;"/>
                </g>
                <g transform="matrix(0.339229,0,0,0.339229,377.916,950.038)">
                    <path d="M42.413,19.461C44.542,19.461 46.274,21.194 46.274,23.324C46.274,24.263 47.036,25.025 47.975,25.025C48.914,25.025 49.676,24.263 49.676,23.324C49.676,19.318 46.417,16.058 42.412,16.058C41.473,16.058 40.711,16.82 40.711,17.759C40.711,18.698 41.474,19.461 42.413,19.461Z" style="fill:rgb(253,253,253);fill-rule:nonzero;"/>
                </g>
            </g>
        </g>
    </g>
</svg>
