<?xml version="1.0" standalone="no"?>
<!DOCTYPE svg PUBLIC "-//W3C//DTD SVG 1.1//EN" "http://www.w3.org/Graphics/SVG/1.1/DTD/svg11.dtd">
<svg width="100%" height="100%" viewBox="0 0 26 26" version="1.1" xmlns="http://www.w3.org/2000/svg" xmlns:xlink="http://www.w3.org/1999/xlink" xml:space="preserve" style="fill-rule:evenodd;clip-rule:evenodd;stroke-linejoin:round;stroke-miterlimit:1.41421;">
    <g id="Layer1">
        <g transform="matrix(0.761768,0,0,0.761768,3.09701,3.09701)">
            <path d="M13,26L12.832,25.999L12.665,25.996L12.498,25.99L12.331,25.983L12.166,25.974L12,25.962L11.836,25.948L11.672,25.933L11.508,25.915L11.345,25.895L11.183,25.874L11.021,25.85L10.86,25.824L10.7,25.797L10.54,25.767L10.381,25.736L10.223,25.702L10.066,25.667L9.909,25.63L9.753,25.59L9.597,25.549L9.443,25.506L9.289,25.462L9.136,25.415L8.984,25.367L8.832,25.316L8.682,25.264L8.532,25.211L8.383,25.155L8.235,25.098L8.088,25.039L7.942,24.978L7.797,24.915L7.652,24.851L7.509,24.785L7.366,24.717L7.224,24.648L7.084,24.577L6.944,24.504L6.806,24.43L6.668,24.354L6.531,24.277L6.396,24.198L6.261,24.117L6.128,24.035L5.995,23.951L5.864,23.865L5.734,23.779L5.605,23.69L5.477,23.6L5.35,23.509L5.224,23.416L5.099,23.322L4.976,23.226L4.854,23.129L4.733,23.03L4.613,22.93L4.494,22.828L4.377,22.725L4.261,22.621L4.146,22.516L4.033,22.409L3.92,22.3L3.809,22.191L3.7,22.08L3.591,21.967L3.484,21.854L3.379,21.739L3.275,21.623L3.172,21.506L3.07,21.387L2.97,21.267L2.871,21.146L2.774,21.024L2.678,20.901L2.584,20.776L2.491,20.65L2.4,20.523L2.31,20.395L2.221,20.266L2.135,20.136L2.049,20.005L1.965,19.872L1.883,19.739L1.802,19.604L1.723,19.469L1.646,19.332L1.57,19.194L1.496,19.056L1.423,18.916L1.352,18.776L1.283,18.634L1.215,18.491L1.149,18.348L1.085,18.203L1.022,18.058L0.961,17.912L0.902,17.765L0.845,17.617L0.789,17.468L0.736,17.318L0.684,17.168L0.633,17.016L0.585,16.864L0.538,16.711L0.494,16.557L0.451,16.403L0.41,16.247L0.37,16.091L0.333,15.934L0.298,15.777L0.264,15.619L0.233,15.46L0.203,15.3L0.176,15.14L0.15,14.979L0.126,14.817L0.105,14.655L0.085,14.492L0.067,14.328L0.052,14.164L0.038,14L0.026,13.834L0.017,13.669L0.01,13.502L0.004,13.335L0.001,13.168L0,13L0.001,12.832L0.004,12.665L0.01,12.498L0.017,12.331L0.026,12.166L0.038,12L0.052,11.836L0.067,11.672L0.085,11.508L0.105,11.345L0.126,11.183L0.15,11.021L0.176,10.86L0.203,10.7L0.233,10.54L0.264,10.381L0.298,10.223L0.333,10.066L0.37,9.909L0.41,9.753L0.451,9.597L0.494,9.443L0.538,9.289L0.585,9.136L0.633,8.984L0.684,8.832L0.736,8.682L0.789,8.532L0.845,8.383L0.902,8.235L0.961,8.088L1.022,7.942L1.085,7.797L1.149,7.652L1.215,7.509L1.283,7.366L1.352,7.224L1.423,7.084L1.496,6.944L1.57,6.806L1.646,6.668L1.723,6.531L1.802,6.396L1.883,6.261L1.965,6.128L2.049,5.995L2.135,5.864L2.221,5.734L2.31,5.605L2.4,5.477L2.491,5.35L2.584,5.224L2.678,5.099L2.774,4.976L2.871,4.854L2.97,4.733L3.07,4.613L3.172,4.494L3.275,4.377L3.379,4.261L3.484,4.146L3.591,4.033L3.7,3.92L3.809,3.809L3.92,3.7L4.033,3.591L4.146,3.484L4.261,3.379L4.377,3.275L4.494,3.172L4.613,3.07L4.733,2.97L4.854,2.871L4.976,2.774L5.099,2.678L5.224,2.584L5.35,2.491L5.477,2.4L5.605,2.31L5.734,2.221L5.864,2.135L5.995,2.049L6.128,1.965L6.261,1.883L6.396,1.802L6.531,1.723L6.668,1.646L6.806,1.57L6.944,1.496L7.084,1.423L7.224,1.352L7.366,1.283L7.509,1.215L7.652,1.149L7.797,1.085L7.942,1.022L8.088,0.961L8.235,0.902L8.383,0.845L8.532,0.789L8.682,0.736L8.832,0.684L8.984,0.633L9.136,0.585L9.289,0.538L9.443,0.494L9.597,0.451L9.753,0.41L9.909,0.37L10.066,0.333L10.223,0.298L10.381,0.264L10.54,0.233L10.7,0.203L10.86,0.176L11.021,0.15L11.183,0.126L11.345,0.105L11.508,0.085L11.672,0.067L11.836,0.052L12,0.038L12.166,0.026L12.331,0.017L12.498,0.01L12.665,0.004L12.832,0.001L13,0L13.168,0.001L13.335,0.004L13.502,0.01L13.669,0.017L13.834,0.026L14,0.038L14.164,0.052L14.328,0.067L14.492,0.085L14.655,0.105L14.817,0.126L14.979,0.15L15.14,0.176L15.3,0.203L15.46,0.233L15.619,0.264L15.777,0.298L15.934,0.333L16.091,0.37L16.247,0.41L16.403,0.451L16.557,0.494L16.711,0.538L16.864,0.585L17.016,0.633L17.168,0.684L17.318,0.736L17.468,0.789L17.617,0.845L17.765,0.902L17.912,0.961L18.058,1.022L18.203,1.085L18.348,1.149L18.491,1.215L18.634,1.283L18.776,1.352L18.916,1.423L19.056,1.496L19.194,1.57L19.332,1.646L19.469,1.723L19.604,1.802L19.739,1.883L19.872,1.965L20.005,2.049L20.136,2.135L20.266,2.221L20.395,2.31L20.523,2.4L20.65,2.491L20.776,2.584L20.901,2.678L21.024,2.774L21.146,2.871L21.267,2.97L21.387,3.07L21.506,3.172L21.623,3.275L21.739,3.379L21.854,3.484L21.967,3.591L22.08,3.7L22.191,3.809L22.3,3.92L22.409,4.033L22.516,4.146L22.621,4.261L22.725,4.377L22.828,4.494L22.93,4.613L23.03,4.733L23.129,4.854L23.226,4.976L23.322,5.099L23.416,5.224L23.509,5.35L23.6,5.477L23.69,5.605L23.779,5.734L23.865,5.864L23.951,5.995L24.035,6.128L24.117,6.261L24.198,6.396L24.277,6.531L24.354,6.668L24.43,6.806L24.504,6.944L24.577,7.084L24.648,7.224L24.717,7.366L24.785,7.509L24.851,7.652L24.915,7.797L24.978,7.942L25.039,8.088L25.098,8.235L25.155,8.383L25.211,8.532L25.264,8.682L25.316,8.832L25.367,8.984L25.415,9.136L25.462,9.289L25.506,9.443L25.549,9.597L25.59,9.753L25.63,9.909L25.667,10.066L25.702,10.223L25.736,10.381L25.767,10.54L25.797,10.7L25.824,10.86L25.85,11.021L25.874,11.183L25.895,11.345L25.915,11.508L25.933,11.672L25.948,11.836L25.962,12L25.974,12.166L25.983,12.331L25.99,12.498L25.996,12.665L25.999,12.832L26,13L25.999,13.168L25.996,13.335L25.99,13.502L25.983,13.669L25.974,13.834L25.962,14L25.948,14.164L25.933,14.328L25.915,14.492L25.895,14.655L25.874,14.817L25.85,14.979L25.824,15.14L25.797,15.3L25.767,15.46L25.736,15.619L25.702,15.777L25.667,15.934L25.63,16.091L25.59,16.247L25.549,16.403L25.506,16.557L25.462,16.711L25.415,16.864L25.367,17.016L25.316,17.168L25.264,17.318L25.211,17.468L25.155,17.617L25.098,17.765L25.039,17.912L24.978,18.058L24.915,18.203L24.851,18.348L24.785,18.491L24.717,18.634L24.648,18.776L24.577,18.916L24.504,19.056L24.43,19.194L24.354,19.332L24.277,19.469L24.198,19.604L24.117,19.739L24.035,19.872L23.951,20.005L23.865,20.136L23.779,20.266L23.69,20.395L23.6,20.523L23.509,20.65L23.416,20.776L23.322,20.901L23.226,21.024L23.129,21.146L23.03,21.267L22.93,21.387L22.828,21.506L22.725,21.623L22.621,21.739L22.516,21.854L22.409,21.967L22.3,22.08L22.191,22.191L22.08,22.3L21.967,22.409L21.854,22.516L21.739,22.621L21.623,22.725L21.506,22.828L21.387,22.93L21.267,23.03L21.146,23.129L21.024,23.226L20.901,23.322L20.776,23.416L20.65,23.509L20.523,23.6L20.395,23.69L20.266,23.779L20.136,23.865L20.005,23.951L19.872,24.035L19.739,24.117L19.604,24.198L19.469,24.277L19.332,24.354L19.194,24.43L19.056,24.504L18.916,24.577L18.776,24.648L18.634,24.717L18.491,24.785L18.348,24.851L18.203,24.915L18.058,24.978L17.912,25.039L17.765,25.098L17.617,25.155L17.468,25.211L17.318,25.264L17.168,25.316L17.016,25.367L16.864,25.415L16.711,25.462L16.557,25.506L16.403,25.549L16.247,25.59L16.091,25.63L15.934,25.667L15.777,25.702L15.619,25.736L15.46,25.767L15.3,25.797L15.14,25.824L14.979,25.85L14.817,25.874L14.655,25.895L14.492,25.915L14.328,25.933L14.164,25.948L14,25.962L13.834,25.974L13.669,25.983L13.502,25.99L13.335,25.996L13.168,25.999L13,26ZM13,21.624L13.112,21.623L13.224,21.621L13.336,21.618L13.447,21.613L13.557,21.607L13.667,21.599L13.777,21.59L13.886,21.579L13.994,21.568L14.102,21.555L14.21,21.54L14.317,21.525L14.424,21.508L14.53,21.489L14.635,21.47L14.74,21.449L14.845,21.427L14.949,21.403L15.053,21.379L15.156,21.353L15.259,21.326L15.361,21.297L15.462,21.268L15.563,21.237L15.664,21.205L15.764,21.172L15.863,21.137L15.962,21.102L16.061,21.065L16.159,21.027L16.256,20.988L16.353,20.948L16.449,20.907L16.544,20.864L16.639,20.82L16.734,20.776L16.827,20.73L16.92,20.683L17.013,20.635L17.105,20.585L17.196,20.535L17.287,20.484L17.377,20.431L17.466,20.378L17.554,20.323L17.642,20.267L17.73,20.211L17.816,20.153L17.902,20.094L17.987,20.035L18.071,19.974L18.155,19.912L18.238,19.849L18.32,19.786L18.401,19.721L18.482,19.655L18.561,19.589L18.64,19.521L18.718,19.452L18.796,19.383L18.872,19.313L18.948,19.242L19.023,19.169L19.096,19.096L19.169,19.023L19.242,18.948L19.313,18.872L19.383,18.796L19.452,18.718L19.521,18.64L19.589,18.561L19.655,18.482L19.721,18.401L19.786,18.32L19.849,18.238L19.912,18.155L19.974,18.071L20.035,17.987L20.094,17.902L20.153,17.816L20.211,17.73L20.267,17.642L20.323,17.554L20.378,17.466L20.431,17.377L20.484,17.287L20.535,17.196L20.585,17.105L20.635,17.013L20.683,16.92L20.73,16.827L20.776,16.734L20.82,16.639L20.864,16.544L20.907,16.449L20.948,16.353L20.988,16.256L21.027,16.159L21.065,16.061L21.102,15.962L21.137,15.863L21.172,15.764L21.205,15.664L21.237,15.563L21.268,15.462L21.297,15.361L21.326,15.259L21.353,15.156L21.379,15.053L21.403,14.949L21.427,14.845L21.449,14.74L21.47,14.635L21.489,14.53L21.508,14.424L21.525,14.317L21.54,14.21L21.555,14.102L21.568,13.994L21.579,13.886L21.59,13.777L21.599,13.667L21.607,13.557L21.613,13.447L21.618,13.336L21.621,13.224L21.623,13.112L21.624,13L21.623,12.888L21.621,12.776L21.618,12.664L21.613,12.553L21.607,12.443L21.599,12.333L21.59,12.223L21.579,12.114L21.568,12.006L21.555,11.898L21.54,11.79L21.525,11.683L21.508,11.576L21.489,11.47L21.47,11.365L21.449,11.26L21.427,11.155L21.403,11.051L21.379,10.947L21.353,10.844L21.326,10.741L21.297,10.639L21.268,10.538L21.237,10.437L21.205,10.336L21.172,10.236L21.137,10.137L21.102,10.038L21.065,9.939L21.027,9.841L20.988,9.744L20.948,9.647L20.907,9.551L20.864,9.456L20.82,9.361L20.776,9.266L20.73,9.173L20.683,9.08L20.635,8.987L20.585,8.895L20.535,8.804L20.484,8.713L20.431,8.623L20.378,8.534L20.323,8.446L20.267,8.358L20.211,8.27L20.153,8.184L20.094,8.098L20.035,8.013L19.974,7.929L19.912,7.845L19.849,7.762L19.786,7.68L19.721,7.599L19.655,7.518L19.589,7.439L19.521,7.36L19.452,7.282L19.383,7.204L19.313,7.128L19.242,7.052L19.169,6.977L19.096,6.904L19.023,6.831L18.948,6.758L18.872,6.687L18.796,6.617L18.718,6.548L18.64,6.479L18.561,6.411L18.482,6.345L18.401,6.279L18.32,6.214L18.238,6.151L18.155,6.088L18.071,6.026L17.987,5.965L17.902,5.906L17.816,5.847L17.73,5.789L17.642,5.733L17.554,5.677L17.466,5.622L17.377,5.569L17.287,5.516L17.196,5.465L17.105,5.415L17.013,5.365L16.92,5.317L16.827,5.27L16.733,5.224L16.639,5.18L16.544,5.136L16.449,5.093L16.353,5.052L16.256,5.012L16.159,4.973L16.061,4.935L15.962,4.898L15.863,4.863L15.764,4.828L15.664,4.795L15.563,4.763L15.462,4.732L15.361,4.703L15.259,4.674L15.156,4.647L15.053,4.621L14.949,4.597L14.845,4.573L14.74,4.551L14.635,4.53L14.53,4.511L14.424,4.492L14.317,4.475L14.21,4.46L14.102,4.445L13.994,4.432L13.886,4.421L13.777,4.41L13.667,4.401L13.557,4.393L13.447,4.387L13.336,4.382L13.224,4.379L13.112,4.377L13,4.376L12.888,4.377L12.776,4.379L12.664,4.382L12.553,4.387L12.443,4.393L12.333,4.401L12.223,4.41L12.114,4.421L12.006,4.432L11.898,4.445L11.79,4.46L11.683,4.475L11.576,4.492L11.47,4.511L11.365,4.53L11.26,4.551L11.155,4.573L11.051,4.597L10.947,4.621L10.844,4.647L10.741,4.674L10.639,4.703L10.538,4.732L10.437,4.763L10.336,4.795L10.236,4.828L10.137,4.863L10.038,4.898L9.939,4.935L9.841,4.973L9.744,5.012L9.647,5.052L9.551,5.093L9.456,5.136L9.361,5.18L9.266,5.224L9.173,5.27L9.08,5.317L8.987,5.365L8.895,5.415L8.804,5.465L8.713,5.516L8.623,5.569L8.534,5.622L8.446,5.677L8.358,5.733L8.27,5.789L8.184,5.847L8.098,5.906L8.013,5.965L7.929,6.026L7.845,6.088L7.762,6.151L7.68,6.214L7.599,6.279L7.518,6.345L7.439,6.411L7.36,6.479L7.282,6.548L7.204,6.617L7.128,6.687L7.052,6.758L6.977,6.831L6.904,6.904L6.831,6.977L6.758,7.052L6.687,7.128L6.617,7.204L6.548,7.282L6.479,7.36L6.411,7.439L6.345,7.518L6.279,7.599L6.214,7.68L6.151,7.762L6.088,7.845L6.026,7.929L5.965,8.013L5.906,8.098L5.847,8.184L5.789,8.27L5.733,8.358L5.677,8.446L5.622,8.534L5.569,8.623L5.516,8.713L5.465,8.804L5.415,8.895L5.365,8.987L5.317,9.08L5.27,9.173L5.224,9.266L5.18,9.361L5.136,9.456L5.093,9.551L5.052,9.647L5.012,9.744L4.973,9.841L4.935,9.939L4.898,10.038L4.863,10.137L4.828,10.236L4.795,10.336L4.763,10.437L4.732,10.538L4.703,10.639L4.674,10.741L4.647,10.844L4.621,10.947L4.597,11.051L4.573,11.155L4.551,11.26L4.53,11.365L4.511,11.47L4.492,11.576L4.475,11.683L4.46,11.79L4.445,11.898L4.432,12.006L4.421,12.114L4.41,12.223L4.401,12.333L4.393,12.443L4.387,12.553L4.382,12.664L4.379,12.776L4.377,12.888L4.376,13L4.377,13.112L4.379,13.224L4.382,13.336L4.387,13.447L4.393,13.557L4.401,13.667L4.41,13.777L4.421,13.886L4.432,13.994L4.445,14.102L4.46,14.21L4.475,14.317L4.492,14.424L4.511,14.53L4.53,14.635L4.551,14.74L4.573,14.845L4.597,14.949L4.621,15.053L4.647,15.156L4.674,15.259L4.703,15.361L4.732,15.462L4.763,15.563L4.795,15.664L4.828,15.764L4.863,15.863L4.898,15.962L4.935,16.061L4.973,16.159L5.012,16.256L5.052,16.353L5.093,16.449L5.136,16.544L5.18,16.639L5.224,16.733L5.27,16.827L5.317,16.92L5.365,17.013L5.415,17.105L5.465,17.196L5.516,17.287L5.569,17.377L5.622,17.466L5.677,17.554L5.733,17.642L5.789,17.73L5.847,17.816L5.906,17.902L5.965,17.987L6.026,18.071L6.088,18.155L6.151,18.238L6.214,18.32L6.279,18.401L6.345,18.482L6.411,18.561L6.479,18.64L6.548,18.718L6.617,18.796L6.687,18.872L6.758,18.948L6.831,19.023L6.904,19.096L6.977,19.169L7.052,19.242L7.128,19.313L7.204,19.383L7.282,19.452L7.36,19.521L7.439,19.589L7.518,19.655L7.599,19.721L7.68,19.786L7.762,19.849L7.845,19.912L7.929,19.974L8.013,20.035L8.098,20.094L8.184,20.153L8.27,20.211L8.358,20.267L8.446,20.323L8.534,20.378L8.623,20.431L8.713,20.484L8.804,20.535L8.895,20.585L8.987,20.635L9.08,20.683L9.173,20.73L9.266,20.776L9.361,20.82L9.456,20.864L9.551,20.907L9.647,20.948L9.744,20.988L9.841,21.027L9.939,21.065L10.038,21.102L10.137,21.137L10.236,21.172L10.336,21.205L10.437,21.237L10.538,21.268L10.639,21.297L10.741,21.326L10.844,21.353L10.947,21.379L11.051,21.403L11.155,21.427L11.26,21.449L11.365,21.47L11.47,21.489L11.576,21.508L11.683,21.525L11.79,21.54L11.898,21.555L12.006,21.568L12.114,21.579L12.223,21.59L12.333,21.599L12.443,21.607L12.553,21.613L12.664,21.618L12.776,21.621L12.888,21.623L13,21.624Z" style="fill:rgb(224,224,224);"/>
        </g>
        <g transform="matrix(0.502212,0,0,0.502212,6.47124,6.47124)">
            <path d="M26,0L0,26" style="fill:none;stroke-width:6.64px;stroke:rgb(224,224,224);"/>
        </g>
    </g>
</svg>
